<?xml version="1.0" encoding="UTF-8"?>
<svg id="Layer_1" xmlns="http://www.w3.org/2000/svg" viewBox="0 0 900 900">
  <defs>
    <style>
      .cls-1 {
        fill: #5f694c;
      }
    </style>
  </defs>
  <path class="cls-1" d="M450,0C201.47,0,0,201.47,0,450s201.47,450,450,450,450-201.47,450-450S698.53,0,450,0ZM755.1,501.56c-15.76,93.87-73.78,173.42-153.84,218.36-31.01,17.42-65.31,29.64-101.76,35.5-16.12,2.6-32.66,3.95-49.5,3.95-168.96,0-306.3-135.47-309.32-303.7-3.12-173.06,134.83-314.29,307.92-315.06,101.75-.45,192.16,48.22,248.88,123.68,7.07,9.41,3.55,19.09-7.92,21.74-25.36,5.84-49.5,14.81-72.04,26.46-5.1,2.64-12.42,1.44-16.32-2.76-37.83-40.78-91.96-66.22-152.03-65.99-113.73.45-205.41,92.54-205.41,206.25s92.35,206.25,206.25,206.25c2.56,0,5.1-.04,7.65-.14,36.2-1.32,70.04-11.98,99.15-29.65,45.43-27.53,79.37-72.13,92.95-124.91h-94.85c-19.05,38.69-58.86,65.31-104.89,65.31-65.46,0-118.35-53.82-116.84-119.62,1.47-64.04,53.3-114.4,117.35-114.13,45.82.2,85.4,26.77,104.38,65.31h188.32c6.93,0,12.77,5.16,13.65,12.03,1.66,12.95,2.51,26.13,2.51,39.53,0,17.57-1.47,34.8-4.28,51.56Z"/>
</svg>