<?xml version="1.0" encoding="UTF-8"?>
<svg id="Logo" xmlns="http://www.w3.org/2000/svg" viewBox="0 0 753 728.39">
  <defs>
    <style>
      .cls-1 {
        fill: #5f734c;
      }

      .cls-2 {
        fill: #5f694c;
      }

      .cls-3 {
        fill: #5f7d4c;
      }
    </style>
  </defs>
  <g>
    <path class="cls-2" d="M659.24,95.03c-3.25-3.25-7.74-5.26-12.7-5.26h-58.68c-6.21-10.73-17.8-17.96-31.09-17.96h-77.95C464.03,29.98,424.12,0,377.22,0s-86.81,29.98-101.6,71.82h-79.38c-13.29,0-24.89,7.23-31.09,17.96h-58.68c-9.92,0-17.96,8.04-17.96,17.96,0,4.96,2.01,9.45,5.26,12.7s7.74,5.26,12.7,5.26h58.68c6.21,10.73,17.8,17.96,31.09,17.96h79.38c14.79,41.84,54.7,71.82,101.6,71.82s86.81-29.98,101.6-71.82h77.95c13.29,0,24.89-7.23,31.09-17.96h58.68c9.92,0,17.96-8.04,17.96-17.96,0-4.96-2.01-9.45-5.26-12.7ZM377.22,179.55c-26.59,0-49.79-14.44-62.21-35.91-6.11-10.56-9.61-22.82-9.61-35.91s3.5-25.35,9.61-35.91c12.42-21.47,35.62-35.91,62.21-35.91s49.79,14.44,62.21,35.91c6.11,10.56,9.61,22.82,9.61,35.91s-3.5,25.35-9.61,35.91c-12.42,21.47-35.62,35.91-62.21,35.91Z"/>
    <g>
      <path class="cls-3" d="M133.38,692.42c-39.92-49.01-67.06-107.99-78.47-170.57l-.84-4.81-2.42-16.52c-.09-.73-.18-1.47-.26-2.2l-.16-1.37c-.14-1.19-.27-2.38-.39-3.58-1.35-12.9-2.04-26.04-2.04-39.04,0-7.49.22-15.05.66-22.47.07-1.19.14-2.39.23-3.58l.14-1.91c.04-.55.08-1.11.12-1.67l.14-1.76c.05-.6.1-1.2.15-1.81l.51-5.39c.06-.57.11-1.15.18-1.73l.19-1.72c.07-.61.13-1.22.2-1.82l.88-7.1c8.36-62.28,31.47-119.77,68.68-170.88,4.11-5.64,3.14-13.56-2.19-18.03l-17.01-14.27c-2.81-2.37-6.52-3.47-10.15-3.03-3.64.44-6.97,2.38-9.14,5.34-26.24,35.76-46.63,75.14-60.59,117.05C9.76,355.57,2.64,393.16.62,431.3c-.41,7.54-.62,15.29-.62,23.03,0,13.37.62,26.84,1.85,40.02,3.35,35.98,11.28,71.42,23.58,105.32,16.32,44.96,39.98,86.62,70.34,123.82,2.26,2.78,5.48,4.49,9.12,4.84.4.03.8.05,1.2.05,3.11,0,6.15-1.11,8.54-3.12l16.98-14.25c3.01-2.53,4.74-6.25,4.74-10.2,0-3.05-1.06-6.03-2.98-8.4h0Z"/>
      <path class="cls-1" d="M79.5,428.24c-.15,2.14.61,4.28,2.08,5.85,1.47,1.58,3.55,2.48,5.71,2.48h20.68c11.01,0,20.25-8.23,21.5-19.14.1-.84.2-1.68.3-2.52.46-3.77,1-7.61,1.6-11.42,7.76-49.1,26.38-94.66,55.35-135.4,3.99-5.62,2.98-13.48-2.29-17.91l-17.03-14.29c-2.82-2.37-6.54-3.47-10.22-3.02-3.66.46-6.99,2.44-9.14,5.43-35.27,49.09-57.4,104.17-65.78,163.71-1.22,8.65-2.14,17.47-2.75,26.22Z"/>
      <path class="cls-1" d="M134.54,521.7c-.8-3.72-1.54-7.54-2.23-11.36-.2-1.12-.39-2.25-.58-3.38-1.75-10.47-10.75-18.06-21.41-18.06h-21.48c-2.22,0-4.35.95-5.83,2.61-1.48,1.66-2.18,3.87-1.92,6.08,1.01,8.73,2.35,17.51,3.98,26.09,3.63,19.21,8.85,38.29,15.51,56.72,14.09,38.98,34.55,75.14,60.81,107.47,2.27,2.79,5.48,4.51,9.03,4.85.44.04.88.06,1.31.06,3.11,0,6.15-1.1,8.55-3.12l16.98-14.25c5.53-4.64,6.32-12.97,1.77-18.58-31.6-38.98-53.9-85.71-64.5-135.13Z"/>
      <path class="cls-3" d="M752.38,431.3c-2.03-38.14-9.14-75.74-21.15-111.75-13.96-41.91-34.35-81.29-60.59-117.04-2.17-2.96-5.5-4.9-9.13-5.34-3.64-.44-7.35.66-10.16,3.02l-17.02,14.28c-5.34,4.48-6.3,12.4-2.2,18.03,37.22,51.11,60.33,108.6,68.69,170.88,1.26,9.4,2.18,18.98,2.73,28.48.44,7.42.66,14.98.66,22.47,0,13-.69,26.14-2.04,39.04-1,9.52-2.37,19.1-4.08,28.48-11.42,62.58-38.55,121.56-78.48,170.58-1.92,2.36-2.98,5.34-2.98,8.4,0,3.96,1.73,7.67,4.74,10.21l16.97,14.24c2.4,2.01,5.43,3.12,8.54,3.12.4,0,.8-.02,1.27-.06,3.58-.34,6.79-2.05,9.05-4.83,30.36-37.2,54.03-78.86,70.34-123.82,12.3-33.9,20.24-69.34,23.58-105.32,1.23-13.19,1.85-26.65,1.85-40.02,0-7.74-.21-15.49-.62-23.03Z"/>
      <path class="cls-1" d="M667.93,523.68c1.62-8.58,2.96-17.36,3.98-26.09.26-2.2-.45-4.42-1.92-6.07-1.48-1.66-3.6-2.61-5.83-2.61h-21.48c-10.66,0-19.67,7.6-21.41,18.07-.19,1.13-.38,2.25-.58,3.37-.68,3.83-1.43,7.65-2.23,11.37-10.6,49.42-32.9,96.15-64.5,135.12-4.55,5.61-3.76,13.94,1.77,18.58l16.99,14.26c2.4,2.01,5.43,3.11,8.54,3.11.43,0,.87-.02,1.28-.06,3.58-.34,6.8-2.06,9.06-4.85,26.26-32.33,46.72-68.49,60.81-107.47,6.66-18.42,11.88-37.5,15.51-56.71Z"/>
      <path class="cls-1" d="M621.64,403.5c.6,3.81,1.14,7.65,1.6,11.42.1.84.2,1.68.3,2.51,1.25,10.91,10.49,19.14,21.5,19.14h20.68c2.16,0,4.24-.9,5.71-2.48,1.47-1.57,2.23-3.7,2.08-5.85-.61-8.75-1.53-17.57-2.75-26.22h0c-8.37-59.54-30.5-114.62-65.77-163.71-2.15-2.99-5.48-4.97-9.16-5.44-3.67-.46-7.39.65-10.21,3.02l-17.04,14.29c-5.27,4.43-6.27,12.29-2.28,17.91,28.96,40.74,47.58,86.3,55.35,135.4Z"/>
    </g>
  </g>
  <path class="cls-2" d="M599.67,433.98c-.64-5-4.89-8.75-9.93-8.75h-136.96c-13.81-28.03-42.59-47.36-75.92-47.5-46.58-.2-84.28,36.43-85.35,83-1.1,47.86,37.37,87,84.98,87,33.48,0,62.43-19.37,76.29-47.5h68.98c-9.88,38.38-34.56,70.82-67.6,90.84-21.17,12.85-45.78,20.6-72.11,21.56-1.85.07-3.7.1-5.56.1-82.84,0-150-67.16-150-150s66.68-149.67,149.39-150c43.69-.17,83.06,18.33,110.57,47.99,2.84,3.06,8.16,3.93,11.87,2.01,16.39-8.47,33.95-14.99,52.39-19.24,8.34-1.93,10.9-8.97,5.76-15.81-41.25-54.88-107-90.28-181-89.95-125.88.56-226.21,103.27-223.94,229.13,2.2,122.35,102.08,220.87,224.96,220.87,12.25,0,24.28-.98,36-2.87,26.51-4.26,51.46-13.15,74.01-25.82,58.22-32.69,100.42-90.54,111.88-158.81,2.04-12.19,3.11-24.72,3.11-37.5,0-9.74-.62-19.34-1.83-28.75Z"/>
</svg>