<?xml version="1.0" encoding="UTF-8"?>
<svg id="Logo" xmlns="http://www.w3.org/2000/svg" viewBox="0 0 1000 430">
  <defs>
    <style>
      .cls-1 {
        fill: #fff;
      }
    </style>
  </defs>
  <g id="Logo-2" data-name="Logo">
    <g>
      <path class="cls-1" d="M206.67,114.39c-.76-.76-1.83-1.15-3.16-1.15h-44.84c-2.3,0-4.02.96-5.17,2.87l-36.22,58.35c-.57,1.15-1.15,1.15-1.73,0l-36.22-58.35c-1.15-1.91-2.87-2.87-5.17-2.87H29.31c-1.34,0-2.4.39-3.16,1.15-.76.76-1.15,1.82-1.15,3.16v192.59c0,1.34.39,2.4,1.15,3.16.76.76,1.83,1.15,3.16,1.15h45.42c1.34,0,2.4-.39,3.16-1.15.76-.76,1.15-1.83,1.15-3.16v-104.35c0-.76.19-1.19.57-1.29s.76.14,1.15.72l19.55,31.91c1.15,1.91,2.87,2.87,5.17,2.87h21.85c2.3,0,4.02-.96,5.17-2.87l19.55-31.91c.39-.58.76-.82,1.15-.72s.58.53.58,1.29v104.35c0,1.34.39,2.4,1.15,3.16.76.76,1.83,1.15,3.16,1.15h27.99c4.36,0,7.13-4.66,5.04-8.49-2.08-3.81-3.87-8.15-5.17-13.07-1.44-5.39-2.29-11.5-2.29-18.4s.88-13.42,2.59-19.49c2.08-7.36,5.39-14.04,9.89-19.94,1.45-1.9,1.11-4.68-.82-6.1-4.44-3.28-7.64-7.87-9.08-13.2-.56-2.07-.86-4.25-.86-6.52v-.95l.09-.95c.17-1.94.43-3.84.78-5.72,2.01-10.97,6.96-21.07,14.75-30.07,1.58-1.82,3.25-3.57,5.01-5.25,1.13-1.07,1.8-2.54,1.8-4.09v-44.67c0-1.34-.39-2.4-1.15-3.16h0Z"/>
      <path class="cls-1" d="M313.04,172.31c-2.11-1.08-4.31-2.07-6.61-3.02-10.92-4.41-23.29-6.61-35.95-6.61s-24.09,2.07-34.35,6.19c-4.56,1.84-8.72,3.97-12.5,6.42-4.65,3-8.68,6.46-12.06,10.39-4.83,5.57-8,11.61-9.48,18.13-.42,1.79-.7,3.61-.87,5.43,0,.89.29,1.61.87,2.18.65.65,1.71,1.06,3.15,1.27l18.39,2.28,27.89,3.48c1.14.17,2.05.04,2.74-.44.66-.47,1.39-1.41,2.15-2.74,1.16-1.9,3.06-3.44,5.76-4.6,2.66-1.14,5.74-1.73,9.2-1.73,4.98,0,8.95,1.25,11.93,3.74,2.96,2.49,4.45,5.76,4.45,9.77v3.74c0,1.6-1.29,2.87-2.87,2.87h-25.31c-14.53,0-26.52,2.18-35.93,6.54-3.23,1.48-6.14,3.25-8.76,5.26-6.06,4.64-10.32,10.45-12.79,17.42-1.73,4.83-2.6,10.26-2.6,16.21s.87,11.44,2.6,16.21c2.2,6.14,5.85,11.23,10.92,15.26,3.12,2.49,6.63,4.54,10.54,6.16,7.41,3.1,16.24,4.64,26.52,4.64,9.39,0,16.97-1.41,22.7-4.18,5.76-2.77,10.26-7.14,13.53-13.07.38-.57.7-.82.99-.72.3.1.44.53.44,1.29v10.07c0,1.33.4,2.39,1.16,3.15.76.76,1.82,1.16,3.15,1.16h29.18c1.98,0,3.59-1.62,3.59-3.61v-119.32c0-8.11-4.56-15.52-11.78-19.23h0ZM287.73,261.28c0,5.57-1.96,9.96-5.89,13.22-3.93,3.25-8.95,4.88-15.09,4.88-4.22,0-7.43-1.04-9.63-3.15-2.2-2.13-3.31-4.9-3.31-8.34,0-7.87,6.04-11.78,18.11-11.78h12.94c1.58,0,2.87,1.27,2.87,2.87v2.3h0Z"/>
      <path class="cls-1" d="M469.03,236.11c1.78-2.44,1.46-5.89-.9-7.79-4.33-3.49-7.35-8.29-8.53-13.8v-.02c-.37-1.7-.56-3.45-.56-5.26v-.95l.09-.95c.77-8.67,3.29-16.84,7.52-24.4,1.29-2.31.87-5.19-1.04-7.03-2.82-2.71-5.96-5.02-9.42-6.92-7.66-4.21-16.28-6.33-25.87-6.33-15.52,0-26.92,5.94-34.21,17.82-.19.58-.47.76-.86.58s-.58-.67-.58-1.44v-62.09c0-1.34-.39-2.4-1.15-3.16-.76-.76-1.83-1.15-3.16-1.15h-45.42c-1.34,0-2.4.39-3.16,1.15-.76.76-1.15,1.82-1.15,3.16v192.59c0,1.34.37,2.4,1.15,3.16.76.76,1.83,1.15,3.16,1.15h45.42c1.34,0,2.39-.39,3.16-1.15.76-.76,1.15-1.83,1.15-3.16v-81.92c0-5.75,1.48-10.39,4.46-13.94,2.98-3.55,7.14-5.32,11.93-5.32s8.67,1.77,11.64,5.32c2.98,3.55,4.46,8.19,4.46,13.94v81.92c0,1.34.39,2.4,1.15,3.16.76.76,1.83,1.15,3.16,1.15h28.27c4.36,0,7.13-4.66,5.04-8.49-2.08-3.81-3.87-8.15-5.17-13.07-1.44-5.39-2.29-11.5-2.29-18.4,0-6.54.78-12.72,2.31-18.5,1.95-7.32,5.1-13.99,9.4-19.89h0Z"/>
      <path class="cls-1" d="M594.12,245.65c.06-20.44,4.48-39.88,12.46-57.44-.21-.27-.44-.53-.65-.8-6.33-7.68-14.95-13.7-25.88-18.13-10.92-4.39-23.29-6.59-35.93-6.59s-24.11,2.03-34.35,6.17c-7.96,3.21-14.69,7.3-20.18,12.31-1.58,1.42-3.04,2.93-4.41,4.5-5.85,6.76-9.25,14.21-10.22,22.34-.06.42-.08.82-.11,1.23,0,.57.11,1.08.36,1.54.59,1.01,1.8,1.63,3.65,1.9l18.11,2.24,28.18,3.51c1.16.17,2.05.02,2.74-.44.67-.47,1.39-1.39,2.15-2.74,1.16-1.92,3.08-3.44,5.76-4.6,2.68-1.16,5.76-1.71,9.2-1.71,5,0,8.95,1.23,11.93,3.72,2.98,2.49,4.45,5.76,4.45,9.77v3.74c0,1.6-1.29,2.89-2.87,2.89h-25.29c-14.71,0-26.77,2.2-36.21,6.63-3.12,1.46-5.95,3.17-8.49,5.15-6.27,4.81-10.64,10.89-13.05,18.24-1.56,4.62-2.32,9.77-2.32,15.39s.76,10.81,2.32,15.39c2.17,6.5,5.89,11.86,11.19,16.09,3.04,2.41,6.48,4.45,10.28,6.02,7.49,3.19,16.42,4.75,26.81,4.75,9.39,0,16.95-1.41,22.7-4.16,5.74-2.79,10.24-7.16,13.51-13.09.38-.57.72-.82,1.01-.7.28.08.42.53.42,1.27v10.05c0,1.37.4,2.41,1.16,3.19.76.74,1.82,1.12,3.15,1.12h45.43c.19,0,.38,0,.55-.02-11.53-20.82-17.61-44.31-17.54-68.78h0ZM561.37,261.28c0,5.57-1.96,9.96-5.89,13.22-3.91,3.25-8.95,4.88-15.09,4.88-4.22,0-7.43-1.04-9.63-3.15-2.2-2.13-3.31-4.9-3.31-8.34,0-7.87,6.04-11.78,18.11-11.78h14.38c.97,0,1.42.46,1.42,1.42v3.74h0Z"/>
    </g>
    <path class="cls-1" d="M973.03,38.19c-1.22-1.22-2.9-1.98-4.77-1.98h-22c-2.33-4.02-6.68-6.73-11.66-6.73h-29.25c-5.55-15.7-20.51-26.93-38.1-26.93s-32.57,11.24-38.12,26.93h-29.77c-4.99,0-9.33,2.7-11.67,6.73h-22c-3.72,0-6.73,3.02-6.73,6.74,0,1.85.75,3.55,1.97,4.76,1.22,1.22,2.9,1.97,4.76,1.97h22c2.34,4.04,6.68,6.74,11.67,6.74h29.77c.25.69.5,1.38.79,2.04-11.18,4.76-21.24,11.63-29.71,20.09-12.76,12.75-21.87,29.15-25.64,47.5h-38.01c-66.46,0-120.69,53.68-120.88,119.67-.1,32.18,12.39,62.44,35.14,85.2,22.66,22.65,52.8,35.14,84.86,35.14h42.82c13.28,35.85,47.79,61.39,88.26,61.39,26,0,49.53-10.52,66.56-27.57,17.03-17.03,27.57-40.56,27.57-66.55v-188.24c0-38.59-23.23-71.76-56.47-86.28.35-.79.65-1.58.93-2.4h29.25c4.97,0,9.33-2.7,11.66-6.74h22c3.72,0,6.74-3,6.74-6.73,0-1.85-.76-3.55-1.97-4.76h0ZM843.91,29.48c4.66-8.05,13.35-13.47,23.33-13.47s18.67,5.42,23.34,13.47c2.29,3.97,3.59,8.55,3.59,13.47,0,4.07-.89,7.91-2.5,11.37-.33.72-.7,1.42-1.09,2.1-4.67,8.05-13.37,13.47-23.34,13.47s-18.67-5.42-23.33-13.47c-.45-.75-.85-1.52-1.21-2.33-1.54-3.39-2.4-7.17-2.4-11.14,0-4.92,1.31-9.5,3.61-13.47h0ZM913.81,145.1v188.24c0,25.99-21.06,47.06-47.06,47.06-12.99,0-24.76-5.26-33.27-13.78-3.87-3.87-7.07-8.41-9.4-13.43,19.07-13.18,31.59-35.18,31.59-60.06,0-26.75-14.46-50.17-35.97-62.87-10.85-6.41-23.49-10.08-36.97-10.08h-47.06c-13.35,0-24.42,9.99-25.74,23.26l-.02.13c-.02.17-.03.35-.04.5-.06.66-.09,1.32-.09,2v.14c0,.17.02.36.02.53,0,.22.02.42.03.63,0,.23.02.46.04.69.02.2.03.42.04.62.03.23.06.45.09.68.06.5.13.9.19,1.25.04.21.09.44.13.66.03.19.07.37.11.56h.02c.02.12.04.25.07.36.04.16.09.32.12.45.1.37.2.73.32,1.11.07.21.13.42.2.62.49,1.47,1.14,2.89,1.88,4.24.07.14.14.27.23.42.42.72.86,1.41,1.31,2.04.13.17.26.36.39.5.73.99,1.55,1.93,2.41,2.8,4.89,4.89,11.38,7.58,18.3,7.58h34.55c.89,0,1.71-.25,2.41-.66,1.37-.82,2.3-2.31,2.3-4.02l.04-16.15c0-1.71,1.31-2.39,1.71-2.56.4-.16,1.8-.6,3.02.62l39.99,39.97,1.35,1.37c.5.5.79,1.18.79,1.9s-.3,1.45-.85,1.98l-1.29,1.31-40.19,40.19c-1.22,1.22-2.63.76-3.03.6-.4-.17-1.71-.85-1.71-2.57l.04-14.89c0-1.25-.49-2.44-1.38-3.33-.25-.25-.5-.46-.79-.65-.75-.47-1.62-.73-2.53-.73h-34.44c-10.43,0-20.45-2.3-29.78-6.83-23.72-11.53-38.45-35.05-38.45-61.42,0-18.22,7.1-35.36,19.98-48.24h0c5.4-5.4,11.63-9.84,18.47-13.17,9.33-4.53,19.35-6.83,29.78-6.83h94.13c14.27,0,25.87-11.61,25.87-25.89s-11.6-25.89-25.87-25.89h-6.09c7.31-16.5,23.83-28.01,43.05-28.01,26,0,47.06,21.07,47.06,47.06h0Z"/>
  </g>
</svg>